<mxfile host="app.diagrams.net" modified="2024-04-15T13:09:10.582Z" agent="Mozilla/5.0 (Windows NT 10.0; Win64; x64) AppleWebKit/537.36 (KHTML, like Gecko) Chrome/123.0.0.0 Safari/537.36 Edg/123.0.0.0" etag="-OE4cceO7A_BazLxI7_O" version="24.2.5" type="google">
  <diagram name="Page-1" id="7XinwVY85X7m6CWvjZ-n">
    <mxGraphModel grid="1" page="1" gridSize="10" guides="1" tooltips="1" connect="1" arrows="1" fold="1" pageScale="1" pageWidth="850" pageHeight="1100" math="0" shadow="0">
      <root>
        <mxCell id="0" />
        <mxCell id="1" parent="0" />
        <mxCell id="hoccftY2NQ_bgLX-JdEo-2" value="" style="rounded=0;whiteSpace=wrap;html=1;" vertex="1" parent="1">
          <mxGeometry x="160" y="120" width="820" height="400" as="geometry" />
        </mxCell>
        <mxCell id="HEVmAL-wDFT0AS8IcqWM-1" value="" style="rounded=0;whiteSpace=wrap;html=1;movable=1;resizable=1;rotatable=1;deletable=1;editable=1;locked=0;connectable=1;" vertex="1" parent="1">
          <mxGeometry x="170" y="640" width="1150" height="430" as="geometry" />
        </mxCell>
        <mxCell id="HEVmAL-wDFT0AS8IcqWM-2" value="&lt;b&gt;DevOps&lt;br&gt;&lt;/b&gt;&lt;div&gt;Deploy&lt;/div&gt;" style="text;html=1;align=center;verticalAlign=middle;whiteSpace=wrap;rounded=0;" vertex="1" parent="1">
          <mxGeometry x="690" y="644" width="110" height="30" as="geometry" />
        </mxCell>
        <mxCell id="HEVmAL-wDFT0AS8IcqWM-50" style="edgeStyle=orthogonalEdgeStyle;rounded=0;orthogonalLoop=1;jettySize=auto;html=1;exitX=0.5;exitY=0.5;exitDx=0;exitDy=0;exitPerimeter=0;" edge="1" parent="1" source="HEVmAL-wDFT0AS8IcqWM-3" target="HEVmAL-wDFT0AS8IcqWM-8">
          <mxGeometry relative="1" as="geometry" />
        </mxCell>
        <mxCell id="HEVmAL-wDFT0AS8IcqWM-3" value="Developers" style="shape=umlActor;verticalLabelPosition=bottom;verticalAlign=top;html=1;outlineConnect=0;" vertex="1" parent="1">
          <mxGeometry x="80" y="735" width="30" height="60" as="geometry" />
        </mxCell>
        <mxCell id="HEVmAL-wDFT0AS8IcqWM-4" value="" style="rounded=0;whiteSpace=wrap;html=1;" vertex="1" parent="1">
          <mxGeometry x="200" y="690" width="530" height="360" as="geometry" />
        </mxCell>
        <mxCell id="HEVmAL-wDFT0AS8IcqWM-5" value="GitHub" style="text;html=1;align=center;verticalAlign=middle;whiteSpace=wrap;rounded=0;" vertex="1" parent="1">
          <mxGeometry x="415" y="690" width="100" height="30" as="geometry" />
        </mxCell>
        <mxCell id="HEVmAL-wDFT0AS8IcqWM-51" style="edgeStyle=orthogonalEdgeStyle;rounded=0;orthogonalLoop=1;jettySize=auto;html=1;entryX=0.5;entryY=0;entryDx=0;entryDy=0;" edge="1" parent="1" source="HEVmAL-wDFT0AS8IcqWM-8" target="HEVmAL-wDFT0AS8IcqWM-9">
          <mxGeometry relative="1" as="geometry" />
        </mxCell>
        <mxCell id="HEVmAL-wDFT0AS8IcqWM-8" value="Update FE &amp;amp; BE Versions in the Configuration File" style="rounded=1;whiteSpace=wrap;html=1;" vertex="1" parent="1">
          <mxGeometry x="225" y="740" width="170" height="50" as="geometry" />
        </mxCell>
        <mxCell id="HEVmAL-wDFT0AS8IcqWM-52" style="edgeStyle=orthogonalEdgeStyle;rounded=0;orthogonalLoop=1;jettySize=auto;html=1;exitX=0.5;exitY=1;exitDx=0;exitDy=0;entryX=0;entryY=0.5;entryDx=0;entryDy=0;" edge="1" parent="1" source="HEVmAL-wDFT0AS8IcqWM-9" target="HEVmAL-wDFT0AS8IcqWM-10">
          <mxGeometry relative="1" as="geometry" />
        </mxCell>
        <mxCell id="HEVmAL-wDFT0AS8IcqWM-9" value="Trigger a Pipeline" style="rounded=1;whiteSpace=wrap;html=1;" vertex="1" parent="1">
          <mxGeometry x="250" y="890" width="120" height="30" as="geometry" />
        </mxCell>
        <mxCell id="HEVmAL-wDFT0AS8IcqWM-55" style="edgeStyle=orthogonalEdgeStyle;rounded=0;orthogonalLoop=1;jettySize=auto;html=1;exitX=0.5;exitY=0;exitDx=0;exitDy=0;entryX=0.5;entryY=1;entryDx=0;entryDy=0;" edge="1" parent="1" source="HEVmAL-wDFT0AS8IcqWM-10" target="HEVmAL-wDFT0AS8IcqWM-12">
          <mxGeometry relative="1" as="geometry" />
        </mxCell>
        <mxCell id="HEVmAL-wDFT0AS8IcqWM-59" style="edgeStyle=orthogonalEdgeStyle;rounded=0;orthogonalLoop=1;jettySize=auto;html=1;exitX=1;exitY=0.5;exitDx=0;exitDy=0;entryX=0;entryY=0.5;entryDx=0;entryDy=0;" edge="1" parent="1" source="HEVmAL-wDFT0AS8IcqWM-10" target="HEVmAL-wDFT0AS8IcqWM-11">
          <mxGeometry relative="1" as="geometry" />
        </mxCell>
        <mxCell id="HEVmAL-wDFT0AS8IcqWM-10" value="GitHub Actions" style="rounded=0;whiteSpace=wrap;html=1;" vertex="1" parent="1">
          <mxGeometry x="430" y="983" width="110" height="40" as="geometry" />
        </mxCell>
        <mxCell id="HEVmAL-wDFT0AS8IcqWM-11" value="Deploy FE with new version" style="rounded=1;whiteSpace=wrap;html=1;" vertex="1" parent="1">
          <mxGeometry x="610" y="982" width="100" height="42" as="geometry" />
        </mxCell>
        <mxCell id="HEVmAL-wDFT0AS8IcqWM-56" style="edgeStyle=orthogonalEdgeStyle;rounded=0;orthogonalLoop=1;jettySize=auto;html=1;exitX=0.5;exitY=0;exitDx=0;exitDy=0;entryX=0.5;entryY=1;entryDx=0;entryDy=0;" edge="1" parent="1" source="HEVmAL-wDFT0AS8IcqWM-12" target="HEVmAL-wDFT0AS8IcqWM-13">
          <mxGeometry relative="1" as="geometry" />
        </mxCell>
        <mxCell id="HEVmAL-wDFT0AS8IcqWM-12" value="Notify" style="rounded=1;whiteSpace=wrap;html=1;" vertex="1" parent="1">
          <mxGeometry x="455" y="900" width="60" height="30" as="geometry" />
        </mxCell>
        <mxCell id="HEVmAL-wDFT0AS8IcqWM-57" style="edgeStyle=orthogonalEdgeStyle;rounded=0;orthogonalLoop=1;jettySize=auto;html=1;exitX=0.5;exitY=0;exitDx=0;exitDy=0;entryX=0.5;entryY=1;entryDx=0;entryDy=0;" edge="1" parent="1" source="HEVmAL-wDFT0AS8IcqWM-13" target="HEVmAL-wDFT0AS8IcqWM-14">
          <mxGeometry relative="1" as="geometry" />
        </mxCell>
        <mxCell id="HEVmAL-wDFT0AS8IcqWM-13" value="Helm Chart" style="rounded=0;whiteSpace=wrap;html=1;" vertex="1" parent="1">
          <mxGeometry x="435" y="815" width="100" height="40" as="geometry" />
        </mxCell>
        <mxCell id="HEVmAL-wDFT0AS8IcqWM-58" style="edgeStyle=orthogonalEdgeStyle;rounded=0;orthogonalLoop=1;jettySize=auto;html=1;exitX=1;exitY=0.5;exitDx=0;exitDy=0;entryX=0;entryY=0.5;entryDx=0;entryDy=0;" edge="1" parent="1" source="HEVmAL-wDFT0AS8IcqWM-14" target="HEVmAL-wDFT0AS8IcqWM-16">
          <mxGeometry relative="1" as="geometry" />
        </mxCell>
        <mxCell id="HEVmAL-wDFT0AS8IcqWM-14" value="Kubernetes" style="rounded=0;whiteSpace=wrap;html=1;" vertex="1" parent="1">
          <mxGeometry x="435" y="745" width="100" height="40" as="geometry" />
        </mxCell>
        <mxCell id="HEVmAL-wDFT0AS8IcqWM-18" value="" style="rounded=0;whiteSpace=wrap;html=1;fillColor=none;" vertex="1" parent="1">
          <mxGeometry x="798" y="880" width="290" height="150" as="geometry" />
        </mxCell>
        <mxCell id="HEVmAL-wDFT0AS8IcqWM-76" style="edgeStyle=orthogonalEdgeStyle;rounded=0;orthogonalLoop=1;jettySize=auto;html=1;" edge="1" parent="1" source="HEVmAL-wDFT0AS8IcqWM-16" target="HEVmAL-wDFT0AS8IcqWM-75">
          <mxGeometry relative="1" as="geometry">
            <mxPoint x="780" y="765" as="targetPoint" />
            <Array as="points">
              <mxPoint x="750" y="765" />
              <mxPoint x="750" y="750" />
              <mxPoint x="990" y="750" />
            </Array>
          </mxGeometry>
        </mxCell>
        <mxCell id="HEVmAL-wDFT0AS8IcqWM-16" value="Deploy BE with new version" style="rounded=1;whiteSpace=wrap;html=1;" vertex="1" parent="1">
          <mxGeometry x="610" y="745" width="100" height="40" as="geometry" />
        </mxCell>
        <mxCell id="HEVmAL-wDFT0AS8IcqWM-17" value="" style="rounded=0;whiteSpace=wrap;html=1;fillColor=none;" vertex="1" parent="1">
          <mxGeometry x="798" y="717" width="290" height="140" as="geometry" />
        </mxCell>
        <mxCell id="HEVmAL-wDFT0AS8IcqWM-19" value="Dev01 Environment" style="text;html=1;align=center;verticalAlign=middle;whiteSpace=wrap;rounded=0;" vertex="1" parent="1">
          <mxGeometry x="888" y="716" width="110" height="30" as="geometry" />
        </mxCell>
        <mxCell id="HEVmAL-wDFT0AS8IcqWM-20" value="Dev02 Environment" style="text;html=1;align=center;verticalAlign=middle;whiteSpace=wrap;rounded=0;" vertex="1" parent="1">
          <mxGeometry x="888" y="1000" width="110" height="30" as="geometry" />
        </mxCell>
        <mxCell id="HEVmAL-wDFT0AS8IcqWM-38" value="" style="rounded=0;whiteSpace=wrap;html=1;" vertex="1" parent="1">
          <mxGeometry x="1160" y="950" width="130" height="100" as="geometry" />
        </mxCell>
        <mxCell id="HEVmAL-wDFT0AS8IcqWM-39" value="Database" style="text;html=1;align=center;verticalAlign=middle;whiteSpace=wrap;rounded=0;" vertex="1" parent="1">
          <mxGeometry x="1170" y="950" width="110" height="30" as="geometry" />
        </mxCell>
        <mxCell id="HEVmAL-wDFT0AS8IcqWM-40" value="Microsoft SQL" style="rounded=0;whiteSpace=wrap;html=1;" vertex="1" parent="1">
          <mxGeometry x="1175" y="995" width="100" height="40" as="geometry" />
        </mxCell>
        <mxCell id="HEVmAL-wDFT0AS8IcqWM-42" value="" style="rounded=0;whiteSpace=wrap;html=1;" vertex="1" parent="1">
          <mxGeometry x="1160" y="690" width="130" height="160" as="geometry" />
        </mxCell>
        <mxCell id="HEVmAL-wDFT0AS8IcqWM-43" value="Logging" style="text;html=1;align=center;verticalAlign=middle;whiteSpace=wrap;rounded=0;" vertex="1" parent="1">
          <mxGeometry x="1170" y="690" width="110" height="30" as="geometry" />
        </mxCell>
        <mxCell id="HEVmAL-wDFT0AS8IcqWM-44" value="Grafana" style="rounded=0;whiteSpace=wrap;html=1;" vertex="1" parent="1">
          <mxGeometry x="1175" y="726" width="100" height="40" as="geometry" />
        </mxCell>
        <mxCell id="HEVmAL-wDFT0AS8IcqWM-45" value="Loki" style="rounded=0;whiteSpace=wrap;html=1;" vertex="1" parent="1">
          <mxGeometry x="1175" y="785" width="100" height="40" as="geometry" />
        </mxCell>
        <mxCell id="HEVmAL-wDFT0AS8IcqWM-94" style="edgeStyle=orthogonalEdgeStyle;rounded=0;orthogonalLoop=1;jettySize=auto;html=1;exitX=1;exitY=0.25;exitDx=0;exitDy=0;entryX=0;entryY=0.5;entryDx=0;entryDy=0;" edge="1" parent="1" source="HEVmAL-wDFT0AS8IcqWM-92" target="HEVmAL-wDFT0AS8IcqWM-42">
          <mxGeometry relative="1" as="geometry">
            <Array as="points">
              <mxPoint x="1111" y="770" />
            </Array>
          </mxGeometry>
        </mxCell>
        <mxCell id="HEVmAL-wDFT0AS8IcqWM-92" value="" style="rounded=0;whiteSpace=wrap;html=1;fillColor=none;movable=1;resizable=1;rotatable=1;deletable=1;editable=1;locked=0;connectable=1;" vertex="1" parent="1">
          <mxGeometry x="775.5" y="690" width="335" height="360" as="geometry" />
        </mxCell>
        <mxCell id="hoccftY2NQ_bgLX-JdEo-29" style="edgeStyle=orthogonalEdgeStyle;rounded=0;orthogonalLoop=1;jettySize=auto;html=1;" edge="1" parent="1" source="HEVmAL-wDFT0AS8IcqWM-75" target="HEVmAL-wDFT0AS8IcqWM-38">
          <mxGeometry relative="1" as="geometry">
            <Array as="points">
              <mxPoint x="1130" y="870" />
              <mxPoint x="1130" y="1000" />
            </Array>
          </mxGeometry>
        </mxCell>
        <mxCell id="HEVmAL-wDFT0AS8IcqWM-75" value="VPS" style="rounded=0;whiteSpace=wrap;html=1;" vertex="1" parent="1">
          <mxGeometry x="820" y="767" width="248" height="220" as="geometry" />
        </mxCell>
        <mxCell id="HEVmAL-wDFT0AS8IcqWM-93" value="Environments" style="text;html=1;align=center;verticalAlign=middle;whiteSpace=wrap;rounded=0;" vertex="1" parent="1">
          <mxGeometry x="888" y="686" width="110" height="30" as="geometry" />
        </mxCell>
        <mxCell id="hoccftY2NQ_bgLX-JdEo-17" style="edgeStyle=orthogonalEdgeStyle;rounded=0;orthogonalLoop=1;jettySize=auto;html=1;exitX=0.5;exitY=0.5;exitDx=0;exitDy=0;exitPerimeter=0;entryX=0;entryY=0.5;entryDx=0;entryDy=0;" edge="1" parent="1" source="hoccftY2NQ_bgLX-JdEo-1" target="hoccftY2NQ_bgLX-JdEo-4">
          <mxGeometry relative="1" as="geometry" />
        </mxCell>
        <mxCell id="hoccftY2NQ_bgLX-JdEo-1" value="Developers" style="shape=umlActor;verticalLabelPosition=bottom;verticalAlign=top;html=1;outlineConnect=0;" vertex="1" parent="1">
          <mxGeometry x="80" y="198" width="30" height="60" as="geometry" />
        </mxCell>
        <mxCell id="hoccftY2NQ_bgLX-JdEo-3" value="&lt;b&gt;DevOps&lt;br&gt;&lt;/b&gt;&lt;div&gt;Implement &amp;amp; Build&lt;/div&gt;" style="text;html=1;align=center;verticalAlign=middle;whiteSpace=wrap;rounded=0;" vertex="1" parent="1">
          <mxGeometry x="515" y="127" width="110" height="30" as="geometry" />
        </mxCell>
        <mxCell id="hoccftY2NQ_bgLX-JdEo-19" style="edgeStyle=orthogonalEdgeStyle;rounded=0;orthogonalLoop=1;jettySize=auto;html=1;exitX=1;exitY=0.5;exitDx=0;exitDy=0;" edge="1" parent="1" source="hoccftY2NQ_bgLX-JdEo-4" target="hoccftY2NQ_bgLX-JdEo-7">
          <mxGeometry relative="1" as="geometry" />
        </mxCell>
        <mxCell id="hoccftY2NQ_bgLX-JdEo-4" value="Push Code" style="rounded=1;whiteSpace=wrap;html=1;" vertex="1" parent="1">
          <mxGeometry x="210" y="213" width="115" height="30" as="geometry" />
        </mxCell>
        <mxCell id="hoccftY2NQ_bgLX-JdEo-20" style="edgeStyle=orthogonalEdgeStyle;rounded=0;orthogonalLoop=1;jettySize=auto;html=1;exitX=0.25;exitY=1;exitDx=0;exitDy=0;entryX=1;entryY=0.5;entryDx=0;entryDy=0;" edge="1" parent="1" source="hoccftY2NQ_bgLX-JdEo-7" target="hoccftY2NQ_bgLX-JdEo-9">
          <mxGeometry relative="1" as="geometry" />
        </mxCell>
        <mxCell id="hoccftY2NQ_bgLX-JdEo-22" style="edgeStyle=orthogonalEdgeStyle;rounded=0;orthogonalLoop=1;jettySize=auto;html=1;exitX=0.75;exitY=1;exitDx=0;exitDy=0;entryX=0;entryY=0.5;entryDx=0;entryDy=0;" edge="1" parent="1" source="hoccftY2NQ_bgLX-JdEo-7" target="hoccftY2NQ_bgLX-JdEo-11">
          <mxGeometry relative="1" as="geometry" />
        </mxCell>
        <mxCell id="hoccftY2NQ_bgLX-JdEo-7" value="GitHub" style="rounded=0;whiteSpace=wrap;html=1;" vertex="1" parent="1">
          <mxGeometry x="410" y="258" width="110" height="40" as="geometry" />
        </mxCell>
        <mxCell id="hoccftY2NQ_bgLX-JdEo-21" style="edgeStyle=orthogonalEdgeStyle;rounded=0;orthogonalLoop=1;jettySize=auto;html=1;exitX=0.5;exitY=1;exitDx=0;exitDy=0;" edge="1" parent="1" source="hoccftY2NQ_bgLX-JdEo-9" target="hoccftY2NQ_bgLX-JdEo-10">
          <mxGeometry relative="1" as="geometry" />
        </mxCell>
        <mxCell id="hoccftY2NQ_bgLX-JdEo-9" value="Perform Static Code Analysis" style="rounded=1;whiteSpace=wrap;html=1;" vertex="1" parent="1">
          <mxGeometry x="200" y="338" width="185" height="40" as="geometry" />
        </mxCell>
        <mxCell id="hoccftY2NQ_bgLX-JdEo-10" value="Sonarcloud" style="rounded=0;whiteSpace=wrap;html=1;" vertex="1" parent="1">
          <mxGeometry x="237.5" y="434" width="110" height="40" as="geometry" />
        </mxCell>
        <mxCell id="hoccftY2NQ_bgLX-JdEo-23" style="edgeStyle=orthogonalEdgeStyle;rounded=0;orthogonalLoop=1;jettySize=auto;html=1;exitX=1;exitY=0.5;exitDx=0;exitDy=0;entryX=0.5;entryY=1;entryDx=0;entryDy=0;" edge="1" parent="1" source="hoccftY2NQ_bgLX-JdEo-11" target="hoccftY2NQ_bgLX-JdEo-12">
          <mxGeometry relative="1" as="geometry" />
        </mxCell>
        <mxCell id="hoccftY2NQ_bgLX-JdEo-11" value="Merge Codes into Master Branch" style="rounded=1;whiteSpace=wrap;html=1;" vertex="1" parent="1">
          <mxGeometry x="540" y="430" width="120" height="40" as="geometry" />
        </mxCell>
        <mxCell id="hoccftY2NQ_bgLX-JdEo-24" style="edgeStyle=orthogonalEdgeStyle;rounded=0;orthogonalLoop=1;jettySize=auto;html=1;exitX=0.5;exitY=0;exitDx=0;exitDy=0;entryX=0.5;entryY=1;entryDx=0;entryDy=0;" edge="1" parent="1" source="hoccftY2NQ_bgLX-JdEo-12" target="hoccftY2NQ_bgLX-JdEo-13">
          <mxGeometry relative="1" as="geometry" />
        </mxCell>
        <mxCell id="hoccftY2NQ_bgLX-JdEo-12" value="GitHub Actions" style="rounded=0;whiteSpace=wrap;html=1;" vertex="1" parent="1">
          <mxGeometry x="645" y="320" width="110" height="40" as="geometry" />
        </mxCell>
        <mxCell id="hoccftY2NQ_bgLX-JdEo-25" style="edgeStyle=orthogonalEdgeStyle;rounded=0;orthogonalLoop=1;jettySize=auto;html=1;exitX=1;exitY=0.5;exitDx=0;exitDy=0;entryX=0;entryY=0.5;entryDx=0;entryDy=0;" edge="1" parent="1" source="hoccftY2NQ_bgLX-JdEo-13" target="hoccftY2NQ_bgLX-JdEo-14">
          <mxGeometry relative="1" as="geometry" />
        </mxCell>
        <mxCell id="hoccftY2NQ_bgLX-JdEo-13" value="Create a Git tag" style="rounded=1;whiteSpace=wrap;html=1;" vertex="1" parent="1">
          <mxGeometry x="640" y="213" width="120" height="40" as="geometry" />
        </mxCell>
        <mxCell id="hoccftY2NQ_bgLX-JdEo-26" style="edgeStyle=orthogonalEdgeStyle;rounded=0;orthogonalLoop=1;jettySize=auto;html=1;exitX=0.5;exitY=1;exitDx=0;exitDy=0;entryX=0.5;entryY=0;entryDx=0;entryDy=0;" edge="1" parent="1" source="hoccftY2NQ_bgLX-JdEo-14" target="hoccftY2NQ_bgLX-JdEo-15">
          <mxGeometry relative="1" as="geometry" />
        </mxCell>
        <mxCell id="hoccftY2NQ_bgLX-JdEo-14" value="For Backend" style="ellipse;whiteSpace=wrap;html=1;" vertex="1" parent="1">
          <mxGeometry x="817.5" y="208" width="120" height="50" as="geometry" />
        </mxCell>
        <mxCell id="hoccftY2NQ_bgLX-JdEo-27" style="edgeStyle=orthogonalEdgeStyle;rounded=0;orthogonalLoop=1;jettySize=auto;html=1;exitX=0.5;exitY=1;exitDx=0;exitDy=0;" edge="1" parent="1" source="hoccftY2NQ_bgLX-JdEo-15" target="hoccftY2NQ_bgLX-JdEo-16">
          <mxGeometry relative="1" as="geometry" />
        </mxCell>
        <mxCell id="hoccftY2NQ_bgLX-JdEo-15" value="Build &amp;amp; Push Image" style="rounded=1;whiteSpace=wrap;html=1;" vertex="1" parent="1">
          <mxGeometry x="818" y="320" width="120" height="40" as="geometry" />
        </mxCell>
        <mxCell id="hoccftY2NQ_bgLX-JdEo-16" value="Docker Hub" style="rounded=0;whiteSpace=wrap;html=1;" vertex="1" parent="1">
          <mxGeometry x="822.5" y="428" width="110" height="40" as="geometry" />
        </mxCell>
        <mxCell id="YELp45duby9mdER2Yut1-1" value="Nginx" style="rounded=0;whiteSpace=wrap;html=1;" vertex="1" parent="1">
          <mxGeometry x="842.5" y="790" width="70" height="170" as="geometry" />
        </mxCell>
        <mxCell id="HEVmAL-wDFT0AS8IcqWM-77" style="edgeStyle=orthogonalEdgeStyle;rounded=0;orthogonalLoop=1;jettySize=auto;html=1;" edge="1" parent="1" source="HEVmAL-wDFT0AS8IcqWM-11" target="YELp45duby9mdER2Yut1-1">
          <mxGeometry relative="1" as="geometry">
            <Array as="points">
              <mxPoint x="760" y="1003" />
              <mxPoint x="760" y="940" />
            </Array>
            <mxPoint x="847.75" y="987" as="targetPoint" />
          </mxGeometry>
        </mxCell>
      </root>
    </mxGraphModel>
  </diagram>
</mxfile>
